<svg width="78" height="32" viewBox="0 0 78 32" fill="none" xmlns="http://www.w3.org/2000/svg">
<path d="M9.60257 8.38808C11.4977 7.80966 12.0014 6.07077 12.0014 4.78418C11.9996 2.16234 10.003 4.21039e-06 6.89754 4.21039e-06H0.39135C0.340195 -0.000232976 0.289494 0.00955322 0.242142 0.0288041C0.194789 0.0480549 0.151713 0.0763933 0.115373 0.112201C0.0790327 0.148009 0.0501398 0.190586 0.030344 0.237499C0.0105483 0.284413 0.000237377 0.334745 0 0.385622V17.578C0.000237377 17.6289 0.0105483 17.6792 0.030344 17.7262C0.0501398 17.7731 0.0790327 17.8156 0.115373 17.8514C0.151713 17.8873 0.194789 17.9156 0.242142 17.9348C0.289494 17.9541 0.340195 17.9639 0.39135 17.9636H7.4284C11.2694 17.9636 12.9109 15.3923 12.9109 12.9975C12.9109 11.0333 11.8238 8.76829 9.60257 8.38808ZM3.51309 3.09936H6.70368C7.93933 3.09936 8.49736 4.08142 8.49736 5.14097C8.49012 6.32485 7.80707 7.20781 6.70368 7.20781H3.51309V3.09936ZM6.92109 14.8625H3.51309V10.127H6.97364C8.64231 10.127 9.37428 11.4136 9.37428 12.4965C9.37428 13.6534 8.5644 14.8625 6.92109 14.8625Z" fill="#231815"/>
<path d="M4.22126 27.486C4.23352 27.7547 4.19021 28.0231 4.094 28.2745C3.99779 28.5259 3.85073 28.755 3.66192 28.9476C3.47312 29.1402 3.24658 29.2922 2.99633 29.3942C2.74608 29.4963 2.47744 29.5462 2.20703 29.5408C1.92675 29.5574 1.64692 29.5016 1.39478 29.3787C1.14265 29.2558 0.926811 29.0701 0.768287 28.8396V31.3724H0V25.5113H0.753903V26.1352C0.9143 25.9063 1.13032 25.7214 1.38188 25.5978C1.63344 25.4742 1.91235 25.4159 2.19264 25.4283C2.46382 25.4235 2.73314 25.4737 2.98414 25.5759C3.23514 25.6781 3.46253 25.8301 3.65242 26.0228C3.8423 26.2154 3.99069 26.4445 4.0885 26.6961C4.18631 26.9477 4.23148 27.2164 4.22126 27.486ZM3.45873 27.486C3.45873 27.1293 3.31624 26.7871 3.06262 26.5349C2.80899 26.2826 2.465 26.1409 2.10632 26.1409C1.74763 26.1409 1.40364 26.2826 1.15001 26.5349C0.896386 26.7871 0.753903 27.1293 0.753903 27.486C0.753512 27.6645 0.788756 27.8412 0.857593 28.006C0.926431 28.1708 1.02749 28.3204 1.1549 28.4461C1.28232 28.5717 1.43356 28.671 1.59985 28.738C1.76613 28.8051 1.94415 28.8387 2.12358 28.8368C2.30077 28.8399 2.47676 28.8074 2.64094 28.741C2.80512 28.6747 2.95408 28.576 3.07885 28.4508C3.20362 28.3256 3.3016 28.1766 3.36689 28.0128C3.43218 27.8489 3.46342 27.6736 3.45873 27.4974V27.486Z" fill="#231815"/>
<path d="M4.9953 27.4717C5.01552 26.9262 5.24764 26.4097 5.64287 26.0308C6.0381 25.6519 6.56564 25.4402 7.11457 25.4402C7.66349 25.4402 8.19102 25.6519 8.58625 26.0308C8.98148 26.4097 9.21361 26.9262 9.23383 27.4717C9.21361 28.0173 8.98148 28.5338 8.58625 28.9127C8.19102 29.2915 7.66349 29.5032 7.11457 29.5032C6.56564 29.5032 6.0381 29.2915 5.64287 28.9127C5.24764 28.5338 5.01552 28.0173 4.9953 27.4717ZM8.47993 27.4717C8.47539 27.2054 8.39195 26.9463 8.24004 26.7269C8.08814 26.5075 7.87453 26.3376 7.62596 26.2384C7.3774 26.1392 7.10493 26.1151 6.84268 26.1692C6.58043 26.2233 6.34005 26.3532 6.15165 26.5425C5.96326 26.7318 5.83522 26.9722 5.78357 27.2336C5.73193 27.495 5.75896 27.7657 5.8613 28.0119C5.96364 28.2581 6.13673 28.4687 6.3589 28.6175C6.58106 28.7663 6.84242 28.8465 7.11025 28.8483C7.29222 28.8514 7.47294 28.8179 7.6415 28.7496C7.81007 28.6814 7.96297 28.5799 8.09099 28.4512C8.219 28.3226 8.31947 28.1695 8.38632 28.0011C8.45317 27.8328 8.48501 27.6527 8.47993 27.4717Z" fill="#231815"/>
<path d="M16.252 25.5113L14.7413 29.4549H14.1112L12.9918 26.5244L11.9156 29.4549H11.2912L9.7489 25.5113H10.5632L11.5962 28.3159L12.6264 25.5113H13.363L14.4047 28.3159L15.4377 25.5113H16.252Z" fill="#231815"/>
<path d="M20.7609 27.8008H17.4662C17.5784 28.502 18.0993 28.8483 18.7927 28.8483C19.0253 28.861 19.257 28.812 19.4643 28.7064C19.6716 28.6008 19.847 28.4424 19.9725 28.2473L20.6315 28.502C20.4479 28.8299 20.1764 29.1007 19.8471 29.2841C19.5179 29.4675 19.1439 29.5564 18.7668 29.5408C18.4912 29.55 18.2165 29.5027 17.9599 29.402C17.7034 29.3013 17.4703 29.1492 17.2753 28.9552C17.0802 28.7612 16.9273 28.5294 16.826 28.2742C16.7247 28.0191 16.6772 27.7459 16.6864 27.4717C16.6774 27.1988 16.7253 26.9269 16.827 26.6732C16.9287 26.4195 17.082 26.1895 17.2774 25.9976C17.4728 25.8057 17.706 25.6561 17.9623 25.5581C18.2186 25.4602 18.4925 25.416 18.7668 25.4284C19.0379 25.417 19.3082 25.4624 19.5605 25.5617C19.8127 25.6609 20.0412 25.8117 20.2311 26.0043C20.421 26.197 20.5681 26.4271 20.6628 26.6799C20.7575 26.9327 20.7978 27.2025 20.7811 27.4717C20.7782 27.5805 20.7696 27.6892 20.7609 27.8008ZM20.0243 27.1684C19.9936 26.8651 19.845 26.5857 19.61 26.39C19.375 26.1943 19.0724 26.0977 18.7668 26.1209C18.4564 26.092 18.1469 26.1857 17.9053 26.3816C17.6636 26.5775 17.509 26.8601 17.4749 27.1684H20.0243Z" fill="#231815"/>
<path d="M24.4009 25.5801L24.2801 26.2727C24.0958 26.1848 23.8945 26.1379 23.6902 26.1353C22.8845 26.1353 22.5622 26.9738 22.5622 28.0126V29.4436H21.8112V25.5114H22.5737V26.4072C22.7838 25.7146 23.1723 25.4284 23.7104 25.4284C23.9493 25.4247 24.1858 25.4766 24.4009 25.5801Z" fill="#231815"/>
<path d="M28.959 27.8008H25.6643C25.7765 28.502 26.2973 28.8483 26.9908 28.8483C27.223 28.861 27.4544 28.8121 27.6612 28.7065C27.868 28.6009 28.0429 28.4424 28.1677 28.2473L28.8266 28.502C28.5925 28.8972 28.235 29.2056 27.8085 29.3804C27.382 29.5551 26.9098 29.5865 26.4637 29.4699C26.0176 29.3533 25.622 29.0951 25.3369 28.7344C25.0519 28.3737 24.893 27.9304 24.8845 27.4717C24.8755 27.1988 24.9233 26.9269 25.025 26.6732C25.1267 26.4195 25.2801 26.1895 25.4755 25.9976C25.6709 25.8057 25.904 25.6561 26.1604 25.5581C26.4167 25.4602 26.6906 25.416 26.9649 25.4284C27.2359 25.417 27.5063 25.4624 27.7585 25.5617C28.0108 25.6609 28.2392 25.8117 28.4291 26.0043C28.619 26.197 28.7661 26.4271 28.8609 26.6799C28.9556 26.9327 28.9959 27.2025 28.9792 27.4717C28.9763 27.5805 28.9676 27.6892 28.959 27.8008ZM28.2195 27.1684C28.1895 26.8653 28.0415 26.586 27.807 26.3902C27.5725 26.1944 27.2702 26.0978 26.9649 26.1209C26.6545 26.092 26.345 26.1857 26.1033 26.3816C25.8616 26.5775 25.7071 26.8601 25.6729 27.1684H28.2195Z" fill="#231815"/>
<path d="M33.9542 23.3591V29.4548H33.2003V28.8338C33.0398 29.0629 32.8239 29.2481 32.5724 29.3721C32.3209 29.4962 32.042 29.5551 31.7616 29.5435C31.4901 29.5484 31.2206 29.4981 30.9694 29.3958C30.7182 29.2934 30.4906 29.1411 30.3007 28.9481C30.1108 28.7552 29.9624 28.5258 29.8648 28.2738C29.7672 28.0219 29.7223 27.7528 29.7329 27.483C29.7207 27.2144 29.764 26.9462 29.8602 26.695C29.9565 26.4437 30.1036 26.2148 30.2924 26.0224C30.4813 25.83 30.7078 25.6783 30.9581 25.5766C31.2083 25.4748 31.4769 25.4253 31.7472 25.4311C32.0275 25.4142 32.3074 25.4699 32.5596 25.5928C32.8118 25.7157 33.0276 25.9016 33.1859 26.1322V23.362L33.9542 23.3591ZM33.2003 27.4716C33.2003 27.2925 33.1645 27.1152 33.095 26.95C33.0255 26.7848 32.9237 26.635 32.7954 26.5093C32.6671 26.3836 32.515 26.2845 32.3479 26.2178C32.1808 26.1511 32.002 26.1181 31.822 26.1208C31.6444 26.1183 31.4682 26.1518 31.304 26.2193C31.1399 26.2867 30.9913 26.3866 30.8672 26.513C30.7431 26.6393 30.6461 26.7895 30.5822 26.9543C30.5183 27.1191 30.4888 27.2951 30.4955 27.4716C30.4955 27.8283 30.638 28.1704 30.8916 28.4227C31.1452 28.6749 31.4892 28.8166 31.8479 28.8166C32.2066 28.8166 32.5506 28.6749 32.8042 28.4227C33.0578 28.1704 33.2003 27.8283 33.2003 27.4716Z" fill="#231815"/>
<path d="M41.6917 27.4802C41.7019 27.7486 41.6571 28.0163 41.5602 28.2671C41.4633 28.5179 41.3163 28.7465 41.128 28.9391C40.9397 29.1318 40.7141 29.2844 40.4647 29.3878C40.2154 29.4912 39.9476 29.5432 39.6775 29.5407C39.397 29.5525 39.118 29.4937 38.8665 29.3696C38.6149 29.2455 38.399 29.0602 38.2388 28.8309V29.4548H37.4849V23.3591H38.2129V26.1294C38.371 25.8985 38.5868 25.7125 38.839 25.5895C39.0912 25.4666 39.3713 25.411 39.6516 25.4282C39.924 25.4189 40.1954 25.4657 40.4488 25.5658C40.7021 25.6659 40.9318 25.8171 41.1235 26.0099C41.3151 26.2026 41.4646 26.4328 41.5624 26.6859C41.6602 26.9389 41.7042 27.2094 41.6917 27.4802ZM40.9292 27.4802C40.9355 27.303 40.9054 27.1265 40.8409 26.9613C40.7763 26.7961 40.6785 26.6457 40.5536 26.5193C40.4287 26.3929 40.2792 26.2932 40.1142 26.2261C39.9492 26.1591 39.7722 26.1262 39.5941 26.1294C39.2413 26.1455 38.9083 26.2962 38.6644 26.5501C38.4204 26.8041 38.2843 27.1418 38.2843 27.493C38.2843 27.8443 38.4204 28.182 38.6644 28.436C38.9083 28.6899 39.2413 28.8406 39.5941 28.8567C39.7741 28.8561 39.9522 28.8194 40.1177 28.7488C40.2832 28.6783 40.4327 28.5753 40.5573 28.446C40.6819 28.3167 40.779 28.1638 40.8429 27.9964C40.9068 27.829 40.9362 27.6505 40.9292 27.4716V27.4802Z" fill="#231815"/>
<path d="M46.3158 25.5113L43.8009 31.3723H43.0039L43.8441 29.3461L42.2241 25.5113H43.0384L44.2556 28.416L45.4929 25.5113H46.3158Z" fill="#231815"/>
<path d="M49.792 27.7922H50.5862C50.6121 28.3073 51.1156 28.831 51.9127 28.831C52.7098 28.831 53.1184 28.356 53.1184 27.8408C53.1184 27.2685 52.5889 27.0223 52.0882 26.8964L51.3142 26.7104C50.051 26.4242 49.8495 25.6887 49.8495 25.2165C49.8495 24.212 50.779 23.571 51.8177 23.571C52.8565 23.571 53.7082 24.2206 53.7082 25.2595H52.9285C52.9285 24.6871 52.4335 24.2807 51.7918 24.2807C51.1933 24.2807 50.6409 24.6327 50.6409 25.208C50.6409 25.4111 50.7128 25.8318 51.5041 26.0178L52.2839 26.2039C53.2968 26.45 53.9039 26.9909 53.9039 27.8179C53.9039 28.7194 53.15 29.535 51.9098 29.535C50.6696 29.535 49.8006 28.6965 49.792 27.7922Z" fill="#231815"/>
<path d="M58.9078 25.5112V29.4548H58.1538V28.8338C57.993 29.0625 57.777 29.2474 57.5256 29.3714C57.2742 29.4954 56.9955 29.5546 56.7151 29.5435C56.4438 29.548 56.1744 29.4974 55.9234 29.3949C55.6724 29.2924 55.445 29.1401 55.2552 28.9472C55.0653 28.7544 54.917 28.5251 54.8192 28.2734C54.7214 28.0216 54.6763 27.7527 54.6865 27.483C54.6742 27.2144 54.7175 26.9462 54.8138 26.695C54.91 26.4437 55.0571 26.2148 55.246 26.0224C55.4348 25.83 55.6614 25.6783 55.9116 25.5766C56.1619 25.4748 56.4304 25.4253 56.7007 25.4311C56.981 25.4145 57.2608 25.4703 57.513 25.5932C57.7651 25.716 57.9809 25.9018 58.1395 26.1322V25.5141L58.9078 25.5112ZM58.1538 27.4716C58.1539 27.2925 58.1181 27.1152 58.0486 26.95C57.9791 26.7848 57.8772 26.635 57.749 26.5093C57.6207 26.3836 57.4686 26.2845 57.3015 26.2178C57.1344 26.1511 56.9556 26.1181 56.7755 26.1208C56.598 26.1183 56.4217 26.1518 56.2576 26.2193C56.0935 26.2867 55.9448 26.3866 55.8207 26.513C55.6966 26.6393 55.5997 26.7895 55.5358 26.9543C55.4719 27.1191 55.4424 27.2951 55.449 27.4716C55.449 27.8283 55.5915 28.1704 55.8451 28.4227C56.0988 28.6749 56.4428 28.8166 56.8014 28.8166C57.1601 28.8166 57.5041 28.6749 57.7577 28.4227C58.0114 28.1704 58.1538 27.8283 58.1538 27.4716Z" fill="#231815"/>
<path d="M63.9548 27.1739V29.4634H63.2009V27.2255C63.2143 27.0901 63.1988 26.9535 63.1556 26.8244C63.1124 26.6954 63.0424 26.5769 62.9502 26.4765C62.8579 26.3761 62.7455 26.2961 62.6201 26.2417C62.4948 26.1874 62.3593 26.1598 62.2226 26.1609C61.6471 26.1609 60.9824 26.4728 60.9824 27.3285V29.4634H60.2285V25.5112H60.9824V26.1122C61.2241 25.6314 61.8831 25.4282 62.3262 25.4282C63.3304 25.4282 63.9635 26.0693 63.9548 27.1739Z" fill="#231815"/>
<path d="M64.8957 28.2816H65.5978C65.5978 28.6193 65.9086 28.8969 66.4035 28.8969C66.8984 28.8969 67.2178 28.6708 67.2178 28.3503C67.2178 28.0298 66.9847 27.901 66.6625 27.8351L66.1071 27.7064C65.4309 27.5289 65.0424 27.2084 65.0424 26.5759C65.0424 25.9435 65.6179 25.4312 66.4294 25.4312C67.1142 25.4312 67.825 25.7861 67.825 26.5759H67.097C67.0728 26.4255 66.9924 26.2897 66.8718 26.1957C66.7512 26.1018 66.5993 26.0567 66.4466 26.0694C66.0553 26.0694 65.7963 26.2983 65.7963 26.6017C65.7963 26.9051 66.0553 27.0138 66.3172 27.0739L66.9157 27.217C67.7559 27.4202 67.9717 27.9096 67.9717 28.3617C67.9717 29.0972 67.2437 29.5465 66.4035 29.5465C65.6755 29.5408 64.9302 29.0915 64.8957 28.2816Z" fill="#231815"/>
<path d="M72.9499 25.5114V29.455H72.196V28.834C72.0358 29.0633 71.8199 29.2486 71.5683 29.3727C71.3168 29.4967 71.0378 29.5556 70.7573 29.5437C70.4859 29.5486 70.2163 29.4983 69.9651 29.3959C69.7139 29.2936 69.4864 29.1413 69.2964 28.9483C69.1065 28.7554 68.9582 28.526 68.8605 28.274C68.7629 28.0221 68.718 27.753 68.7287 27.4832C68.7164 27.2146 68.7597 26.9464 68.8559 26.6951C68.9522 26.4439 69.0993 26.215 69.2881 26.0226C69.477 25.8302 69.7036 25.6785 69.9538 25.5767C70.204 25.475 70.4726 25.4255 70.7429 25.4313C71.0233 25.4141 71.3033 25.4697 71.5555 25.5926C71.8078 25.7155 72.0235 25.9015 72.1816 26.1324V25.5143L72.9499 25.5114ZM72.196 27.4718C72.196 27.2927 72.1603 27.1154 72.0907 26.9502C72.0212 26.785 71.9194 26.6352 71.7911 26.5095C71.6629 26.3838 71.5108 26.2847 71.3436 26.218C71.1765 26.1513 70.9978 26.1183 70.8177 26.121C70.6401 26.1185 70.4639 26.152 70.2998 26.2195C70.1356 26.2869 69.987 26.3868 69.8629 26.5132C69.7388 26.6395 69.6419 26.7897 69.578 26.9545C69.5141 27.1193 69.4845 27.2953 69.4912 27.4718C69.4912 27.8285 69.6337 28.1706 69.8873 28.4229C70.1409 28.6751 70.4849 28.8168 70.8436 28.8168C71.2023 28.8168 71.5463 28.6751 71.7999 28.4229C72.0535 28.1706 72.196 27.8285 72.196 27.4718Z" fill="#231815"/>
<path d="M77.9999 27.1739V29.4634H77.246V27.2255C77.2593 27.0899 77.2438 26.953 77.2004 26.8238C77.1571 26.6945 77.0868 26.5758 76.9942 26.4754C76.9017 26.375 76.7889 26.295 76.6632 26.2409C76.5375 26.1867 76.4018 26.1594 76.2648 26.1609C75.6893 26.1609 75.0246 26.4728 75.0246 27.3285V29.4634H74.2707V25.5112H75.0246V26.1122C75.2692 25.6314 75.9281 25.4282 76.3684 25.4282C77.3755 25.4282 78.0085 26.0693 77.9999 27.1739Z" fill="#231815"/>
<path d="M36.2361 9.0927C36.2361 4.08328 40.1768 0.045105 45.1846 0.045105C50.1925 0.045105 54.1513 4.08328 54.1513 9.0927C54.1513 14.1021 50.1653 18.1151 45.1846 18.1151C40.204 18.1151 36.2361 14.0769 36.2361 9.0927ZM50.7125 9.08008C50.7125 6.01677 48.4042 3.57693 45.1774 3.57693C41.9506 3.57693 39.6441 6.02037 39.6441 9.08008C39.6441 12.1398 41.9252 14.585 45.1774 14.585C48.4296 14.585 50.7197 12.1416 50.7197 9.08008H50.7125Z" fill="#0075B5"/>
<path d="M36.2924 9.12333C36.2924 4.11931 40.2222 0.0865479 45.2227 0.0865479C50.2233 0.0865479 54.1731 4.11931 54.1731 9.12333C54.1731 14.1003 50.1871 18.1331 45.2191 18.1331C40.2512 18.1331 36.2924 14.1003 36.2924 9.12333ZM50.7488 9.11072C50.7488 6.0474 48.4441 3.61296 45.2227 3.61296C41.9742 3.61296 39.6949 6.05281 39.6949 9.11072C39.6949 12.1686 41.9742 14.6067 45.2227 14.6067C48.4713 14.6067 50.7488 12.1668 50.7488 9.11072Z" fill="#0075B5"/>
<path d="M55.7909 6.76091C55.7878 6.67581 55.8137 6.59217 55.8643 6.5235C55.9149 6.45483 55.9874 6.40515 56.0699 6.3825C56.5748 6.25276 57.1932 6.13263 57.9252 6.02211C58.834 5.88232 59.7523 5.81363 60.6719 5.81669C61.4979 5.79233 62.3212 5.92126 63.0997 6.1969C63.6978 6.41459 64.2281 6.78423 64.6379 7.26906C65.0247 7.75251 65.2993 8.31487 65.4424 8.91604C65.6087 9.61128 65.689 10.3241 65.6815 11.0387V17.569C65.6815 17.6719 65.6406 17.7707 65.5676 17.8436C65.4946 17.9165 65.3955 17.9578 65.292 17.9582H62.8261C62.7223 17.9582 62.6228 17.9172 62.5494 17.8442C62.476 17.7712 62.4348 17.6722 62.4348 17.569V11.4208C62.4348 10.3804 62.2971 9.64403 62.0217 9.21156C61.7463 8.7791 61.2305 8.56226 60.4744 8.56106C60.2425 8.56106 59.9943 8.57187 59.7352 8.59349C59.4761 8.61512 59.2406 8.64035 59.0377 8.66918V17.569C59.0377 17.6722 58.9964 17.7712 58.923 17.8442C58.8496 17.9172 58.7501 17.9582 58.6463 17.9582H56.1804C56.077 17.9578 55.9779 17.9165 55.9049 17.8436C55.8319 17.7707 55.7909 17.6719 55.7909 17.569V6.76091Z" fill="#231815"/>
<path d="M32.0581 0.405442V17.5708C32.0576 17.6734 32.0164 17.7717 31.9435 17.8442C31.8705 17.9168 31.7717 17.9578 31.6686 17.9582H29.1447C29.0934 17.9585 29.0426 17.9486 28.9951 17.9293C28.9476 17.9099 28.9045 17.8814 28.8681 17.8454C28.8317 17.8094 28.8029 17.7666 28.7832 17.7195C28.7635 17.6724 28.7534 17.6218 28.7534 17.5708V0.405442C28.7531 0.354345 28.7631 0.303711 28.7827 0.25648C28.8023 0.20925 28.8311 0.166365 28.8676 0.130318C28.904 0.0942713 28.9472 0.0657811 28.9948 0.0465032C29.0424 0.0272253 29.0933 0.0175441 29.1447 0.0180223H31.6686C31.7719 0.0180223 31.871 0.0588395 31.944 0.131495C32.0171 0.20415 32.0581 0.302692 32.0581 0.405442Z" fill="#231815"/>
<path d="M25.3653 0.405442V17.5708C25.3648 17.6734 25.3236 17.7717 25.2507 17.8442C25.1777 17.9168 25.0789 17.9578 24.9757 17.9582H22.4537C22.3504 17.9582 22.2513 17.9174 22.1783 17.8448C22.1052 17.7721 22.0642 17.6736 22.0642 17.5708V0.405442C22.0637 0.354431 22.0734 0.303837 22.0928 0.256615C22.1122 0.209394 22.1409 0.166494 22.1772 0.130422C22.2134 0.0943508 22.2566 0.0658319 22.3041 0.0465327C22.3515 0.0272335 22.4024 0.0175412 22.4537 0.0180225H24.9794C25.082 0.0189725 25.1802 0.0602088 25.2525 0.132761C25.3247 0.205314 25.3653 0.303313 25.3653 0.405442Z" fill="#231815"/>
<path d="M18.6797 6.19688V17.5708C18.6793 17.6719 18.6394 17.7688 18.5683 17.8411C18.4973 17.9134 18.4008 17.9554 18.2993 17.9582H15.7627C15.7116 17.9582 15.6609 17.9482 15.6137 17.9287C15.5664 17.9093 15.5235 17.8807 15.4873 17.8447C15.4511 17.8088 15.4224 17.7661 15.4028 17.7191C15.3833 17.6721 15.3732 17.6217 15.3732 17.5708V6.19688C15.3727 6.14587 15.3824 6.09528 15.4019 6.04806C15.4213 6.00084 15.4499 5.95794 15.4862 5.92187C15.5225 5.88579 15.5656 5.85727 15.6131 5.83798C15.6606 5.81868 15.7114 5.80898 15.7627 5.80947H18.2993C18.401 5.81182 18.4978 5.85367 18.5689 5.92607C18.64 5.99848 18.6798 6.09568 18.6797 6.19688Z" fill="#231815"/>
<path d="M18.6797 0.405442V3.81653C18.6798 3.91792 18.64 4.01531 18.569 4.088C18.4979 4.16069 18.4011 4.20294 18.2993 4.20575H15.7627C15.7114 4.20576 15.6606 4.19567 15.6132 4.17609C15.5659 4.15651 15.5228 4.12781 15.4866 4.09165C15.4504 4.05548 15.4218 4.01256 15.4023 3.96535C15.3828 3.91813 15.3729 3.86756 15.3732 3.81653V0.405442C15.3727 0.354431 15.3824 0.303837 15.4019 0.256615C15.4213 0.209394 15.4499 0.166494 15.4862 0.130422C15.5225 0.0943508 15.5656 0.0658319 15.6131 0.0465327C15.6606 0.0272335 15.7114 0.0175412 15.7627 0.0180225H18.2993C18.401 0.0203761 18.4978 0.0622301 18.5689 0.134632C18.64 0.207033 18.6798 0.304234 18.6797 0.405442Z" fill="#231815"/>
<path d="M72.6842 5.80957C69.74 5.80957 67.2361 7.99534 67.2361 11.5019C67.2361 14.8482 69.1312 17.9583 72.6842 17.9583C74.3565 17.9583 76.0288 17.3186 77.0325 16.1293C77.0942 16.0488 77.125 15.9491 77.1193 15.848C77.1137 15.7469 77.072 15.6512 77.0017 15.5779L75.8603 14.3706C75.8209 14.3315 75.7742 14.3004 75.7227 14.2792C75.6713 14.258 75.6161 14.2471 75.5604 14.2471C75.5047 14.2471 75.4496 14.258 75.3981 14.2792C75.3467 14.3004 75.2999 14.3315 75.2606 14.3706C74.606 14.9528 73.758 15.2737 72.8799 15.2716C70.6151 15.2716 70.2219 13.4859 70.2219 12.484H77.6105C77.7022 12.4789 77.789 12.4414 77.8555 12.3783C77.9219 12.3153 77.9635 12.2307 77.9728 12.1398C77.9738 12.1272 77.9738 12.1146 77.9728 12.102C77.9891 11.7956 78 11.5452 78 11.3271C78.0018 7.99534 75.6066 5.80957 72.6842 5.80957ZM70.2237 10.5037C70.5336 9.03866 71.5645 8.45663 72.7295 8.45663C74.0267 8.45663 75.0359 9.22607 75.1229 10.5037H70.2237Z" fill="#231815"/>
<path d="M77.6123 12.4767C77.5945 12.4815 77.5757 12.4815 77.5579 12.4767H77.6123Z" fill="#231815"/>
<path d="M9.68414 8.41869C11.5757 7.84026 12.0793 6.10318 12.0793 4.81479C12.0793 2.19655 10.0864 0.036015 6.98274 0.036015H0.485605C0.433992 0.035774 0.382844 0.0457369 0.335136 0.0653247C0.287427 0.0849126 0.244108 0.113735 0.207696 0.150117C0.171284 0.186498 0.142504 0.229715 0.12303 0.277254C0.103555 0.324793 0.0937745 0.375707 0.0942552 0.427038V17.596C0.0944926 17.6469 0.104803 17.6972 0.124599 17.7441C0.144395 17.7911 0.173288 17.8336 0.209628 17.8694C0.245968 17.9052 0.289044 17.9336 0.336397 17.9528C0.383749 17.9721 0.43445 17.9819 0.485605 17.9816H7.5136C11.3492 17.9816 12.9889 15.4157 12.9889 13.0227C12.9889 11.0603 11.9036 8.7989 9.68414 8.41869ZM3.60372 3.13717H6.78344C8.01728 3.13717 8.57531 4.11743 8.57531 5.17518C8.57531 6.35906 7.89226 7.23661 6.78344 7.23661H3.60372V3.13717ZM7.00629 14.8841H3.60372V10.1558H7.06608C8.73294 10.1558 9.4631 11.4388 9.4631 12.5217C9.45766 13.6786 8.6496 14.8841 7.00629 14.8841Z" fill="#231815"/>
</svg>
